<svg width="28" height="25" viewBox="0 0 28 25" fill="none" xmlns="http://www.w3.org/2000/svg">
<path d="M6.47547 21.7678C5.38208 21.7678 4.50736 20.2058 4.50736 18.2377C4.50736 18.0503 4.63232 17.9253 4.81976 17.9253C5.0072 17.9253 5.13216 18.0503 5.13216 18.2377C5.13216 19.9559 5.85067 21.143 6.47547 21.143C7.10027 21.143 7.81878 19.9559 7.81878 18.2377C7.81878 16.5195 7.10027 15.3324 6.47547 15.3324C6.28803 15.3324 6.16307 15.2074 6.16307 15.02C6.16307 14.8326 6.28803 14.7076 6.47547 14.7076C7.56886 14.7076 8.44358 16.2696 8.44358 18.2377C8.44358 20.2058 7.6001 21.7678 6.47547 21.7678Z" fill="black"/>
<path d="M21.9704 22.83H19.6274C19.44 22.83 19.315 22.705 19.315 22.5176C19.315 22.3301 19.44 22.2052 19.6274 22.2052H21.9704C22.1578 22.2052 22.2828 22.3301 22.2828 22.5176C22.2828 22.705 22.1578 22.83 21.9704 22.83Z" fill="black"/>
<path d="M14.5353 18.2377H13.2233C13.0358 18.2377 12.9109 18.1127 12.9109 17.9253C12.9109 17.7379 13.0358 17.6129 13.2233 17.6129H14.5353C14.7228 17.6129 14.8477 17.7379 14.8477 17.9253C14.8477 18.1127 14.7228 18.2377 14.5353 18.2377Z" fill="black"/>
<path d="M18.5028 18.2377H16.6909C16.5034 18.2377 16.3785 18.1127 16.3785 17.9253C16.3785 17.7379 16.5034 17.6129 16.6909 17.6129H18.5028C18.6902 17.6129 18.8152 17.7379 18.8152 17.9253C18.8152 18.1127 18.659 18.2377 18.5028 18.2377Z" fill="black"/>
<path d="M27.9684 18.9562C27.9997 18.7063 27.9997 18.4876 27.9997 18.2377C27.9997 16.707 27.4686 15.3324 26.5627 14.239L26.5314 14.2078C25.3755 12.8645 23.6886 11.9897 21.7517 11.9897C17.6583 11.9897 15.0162 11.9897 6.35051 11.9897C6.31927 11.9897 6.28803 11.9897 6.25679 12.021C4.47612 12.2397 3.13281 14.895 3.13281 18.2377C3.13281 21.5804 4.47612 24.2357 6.25679 24.4544C6.28803 24.4544 6.31927 24.4857 6.35051 24.4857H21.7517C24.9694 24.4857 27.5936 22.0802 27.9684 18.9562ZM3.75761 18.2377C3.75761 15.1762 5.0072 12.6145 6.50671 12.6145C8.00622 12.6145 9.25581 15.1762 9.25581 18.2377C9.25581 21.2992 8.00622 23.8609 6.50671 23.8609C5.0072 23.8609 3.75761 21.268 3.75761 18.2377ZM21.783 23.8609H7.97498C8.34986 23.5485 8.66225 23.0799 8.94341 22.5488H13.2545C13.4419 22.5488 13.5669 22.4238 13.5669 22.2364C13.5669 22.049 13.4419 21.924 13.2545 21.924H9.22457C9.63069 20.8931 9.84937 19.6123 9.84937 18.2377C9.84937 17.3005 9.72441 16.3946 9.53697 15.5823H13.5981C13.7856 15.5823 13.9105 15.4574 13.9105 15.2699V14.9575C13.9105 14.6451 14.1605 14.3952 14.4729 14.3952C14.7853 14.3952 15.0352 14.6451 15.0352 14.9575V15.2699C15.0352 15.4574 15.1601 15.5823 15.3476 15.5823H17.8155C18.003 15.5823 18.1279 15.4574 18.1279 15.2699C18.1279 15.0825 18.003 14.9575 17.8155 14.9575H15.66C15.66 14.3015 15.1289 13.7704 14.4729 13.7704C13.8168 13.7704 13.2857 14.3015 13.2857 14.9575H9.34953C9.00589 13.9266 8.5373 13.1144 7.94374 12.6145H21.7517C23.22 12.6145 24.5633 13.1769 25.563 14.1141H22.6264C22.439 14.1141 22.314 14.239 22.314 14.4265C22.314 14.6139 22.439 14.7388 22.6264 14.7388H26.1565C26.9063 15.7073 27.3749 16.8944 27.3749 18.2377C27.3749 18.3627 27.3749 18.5189 27.3436 18.6438H24.5008C24.3759 18.2065 23.9698 17.9253 23.5012 17.9253H23.095C22.5327 17.9253 22.0641 18.3939 22.0641 18.9562V19.3623H18.5028C18.3153 19.3623 18.1904 19.4873 18.1904 19.6747C18.1904 19.8622 18.3153 19.9871 18.5028 19.9871H22.4078C22.5952 19.9871 22.7202 19.8622 22.7202 19.6747V18.9562C22.7202 18.7375 22.9076 18.5501 23.1263 18.5501H23.5324C23.7511 18.5501 23.9385 18.7375 23.9385 18.9562C23.9385 19.1437 24.0635 19.2686 24.2509 19.2686H27.2812C26.8126 21.8928 24.5008 23.8609 21.783 23.8609Z" fill="black"/>
<path d="M7.22419 10.3789C7.95027 9.86996 10.2407 8.26137 11.1145 7.60781C11.6149 7.23336 12.4458 6.54058 13.0251 5.66628C13.5719 4.84168 13.8912 3.84834 13.4474 2.82034C13.2381 2.33507 12.9352 1.91365 12.5662 1.58299C12.1362 1.19761 11.6144 0.93308 11.0439 0.832286C10.4733 0.731493 9.85166 0.795344 9.22273 1.06671C8.64989 1.31391 8.07067 1.73122 7.51653 2.35012C7.37196 2.51157 7.12431 2.52525 6.9624 2.38113C6.951 2.3711 6.94051 2.36015 6.93047 2.34921C6.37634 1.73076 5.79757 1.31391 5.22519 1.06671C4.59626 0.795344 3.97462 0.731493 3.40406 0.832286C2.83396 0.93308 2.31175 1.19761 1.88167 1.58299C1.5127 1.91365 1.20986 2.33507 1.00052 2.82034C0.556758 3.84834 0.87647 4.84123 1.42285 5.66628C2.00253 6.54058 2.83351 7.23336 3.33337 7.60781C4.20722 8.26137 6.4972 9.86996 7.22373 10.3789H7.22419ZM11.5848 8.23537C10.5636 8.9993 7.61778 11.0608 7.45588 11.1743C7.32407 11.2706 7.14073 11.2783 6.99934 11.1794C6.99067 11.173 3.91214 9.01983 2.86315 8.23537C2.31768 7.82764 1.41054 7.06918 0.767923 6.10001C0.0924688 5.08067 -0.295199 3.83648 0.277637 2.50975C0.531218 1.92186 0.902922 1.40695 1.359 0.998755C1.89809 0.515767 2.55347 0.183741 3.26906 0.0574066C3.98465 -0.0693835 4.75862 0.00860621 5.53624 0.343825C6.10451 0.589196 6.67507 0.973671 7.22419 1.5196C7.77331 0.974127 8.34341 0.589196 8.91214 0.343825C9.6893 0.00860621 10.4637 -0.0693835 11.1793 0.0574066C11.8954 0.184197 12.5503 0.515767 13.0894 0.998755C13.5455 1.4074 13.9172 1.92186 14.1707 2.50975C14.7436 3.83694 14.3559 5.08112 13.6805 6.10001C13.0378 7.06963 12.1307 7.82764 11.5852 8.23537H11.5848Z" fill="black"/>
</svg>
